<svg xmlns="http://www.w3.org/2000/svg" viewBox="0 0 160 240" shape-rendering="crispEdges">
  <rect width="160" height="240" fill="none"/>

  <!-- Main hat -->
  <rect x="28" y="70" width="86" height="12" fill="#34a853"/>
  <rect x="18" y="82" width="106" height="14" fill="#2f8a45"/>
  <rect x="52" y="74" width="18" height="12" fill="#ffffff"/>
  <rect x="55" y="76" width="3" height="8" fill="#34a853"/>
  <rect x="60" y="76" width="3" height="8" fill="#34a853"/>

  <!-- Face -->
  <rect x="30" y="96" width="78" height="30" fill="#ffd9b8"/>
  <rect x="20" y="106" width="10" height="14" fill="#ffd9b8"/>

  <!-- Eye + nose -->
  <rect x="54" y="102" width="8" height="8" fill="#1f1913"/>
  <rect x="74" y="102" width="8" height="8" fill="#1f1913"/>
  <rect x="63" y="112" width="10" height="8" fill="#efbc96"/>

  <!-- Moustache -->
  <rect x="40" y="116" width="54" height="8" fill="#2f2015"/>
  <rect x="32" y="122" width="20" height="8" fill="#2f2015"/>
  <rect x="82" y="122" width="20" height="8" fill="#2f2015"/>

  <!-- Shirt -->
  <rect x="28" y="132" width="84" height="16" fill="#34a853"/>

  <!-- Left arm / raised glove -->
  <rect x="20" y="120" width="14" height="22" fill="#34a853"/>
  <rect x="16" y="92" width="14" height="28" fill="#34a853"/>
  <rect x="12" y="60" width="14" height="32" fill="#34a853"/>
  <rect x="18" y="56" width="8" height="4" fill="#ffd9b8"/>
  <rect x="14" y="44" width="16" height="12" fill="#ffffff"/>

  <!-- Right arm / glove -->
  <rect x="112" y="135" width="16" height="32" fill="#34a853"/>
  <rect x="116" y="161" width="16" height="12" fill="#ffffff"/>

  <!-- Overalls -->
  <rect x="30" y="148" width="80" height="38" fill="#2f5be0"/>
  <rect x="30" y="148" width="10" height="26" fill="#244cc2"/>
  <rect x="100" y="148" width="10" height="26" fill="#244cc2"/>
  <rect x="50" y="156" width="8" height="8" fill="#ffd45f"/>
  <rect x="78" y="156" width="8" height="8" fill="#ffd45f"/>

  <!-- Legs -->
  <rect x="36" y="186" width="18" height="22" fill="#6b4022"/>
  <rect x="82" y="186" width="18" height="22" fill="#6b4022"/>

  <!-- Shoes -->
  <rect x="26" y="208" width="34" height="10" fill="#4b2d18"/>
  <rect x="72" y="208" width="34" height="10" fill="#4b2d18"/>
</svg>
