<svg xmlns="http://www.w3.org/2000/svg" viewBox="0 0 512 512">
  <defs>
    <linearGradient id="poopGradient" x1="0" y1="0" x2="0" y2="1">
      <stop offset="0%" stop-color="#b97a45"/>
      <stop offset="55%" stop-color="#8b5a2b"/>
      <stop offset="100%" stop-color="#5e3a1a"/>
    </linearGradient>
  </defs>
  <rect width="512" height="512" fill="none"/>
  <path
    fill="url(#poopGradient)"
    d="M258 72
       c-44 0-76 30-76 72
       c0 15 4 29 11 41
       c-52 15-89 62-89 118
       c0 70 57 127 127 127
       h50
       c70 0 127-57 127-127
       c0-52-31-96-76-114
       c5-11 8-23 8-36
       c0-45-35-81-82-81z"/>
  <circle cx="212" cy="272" r="14" fill="#2a1d10"/>
  <circle cx="300" cy="272" r="14" fill="#2a1d10"/>
  <path d="M214 326c16 15 68 15 84 0" fill="none" stroke="#2a1d10" stroke-width="12" stroke-linecap="round"/>
  <ellipse cx="198" cy="180" rx="44" ry="24" fill="#d39a67" opacity="0.5"/>
</svg>
